control3min_grf.mot
version=1
nRows=12
nColumns 19
inDegrees=yes
endheader
time	1_ground_force_vx	1_ground_force_vy	1_ground_force_vz	1_ground_force_px	1_ground_force_py	1_ground_force_pz	1_ground_torque_x	1_ground_torque_y	1_ground_torque_z	2_ground_force_vx	2_ground_force_vy	2_ground_force_vz	2_ground_force_px	2_ground_force_py	2_ground_force_pz	2_ground_torque_x	2_ground_torque_y	2_ground_torque_z
            1.253500	            0.045714	           -0.540395	           -0.094144	           -0.233013	            0.005581	           -0.255695	            0.098088	           -0.064587	           -0.017345	            0.192422	           -1.291374	            0.840027	           -0.232311	            0.006130	           -0.833667	           -0.112036	           -0.207761	           -0.170346
            1.254000	           -0.000453	           -1.260680	           -0.280546	           -0.233013	            0.005581	           -0.255695	            0.106261	            0.009496	           -0.056573	            0.189681	           -0.554112	            0.654943	           -0.232311	            0.006130	           -0.833667	           -0.093473	           -0.141659	           -0.132417
            1.254500	            0.228256	           -0.358718	           -0.414818	           -0.233013	            0.005581	           -0.255695	            0.055311	           -0.036711	           -0.028104	           -0.134904	           -1.476372	            0.745653	           -0.232311	            0.006130	           -0.833667	           -0.187809	           -0.028566	           -0.131973
            1.255000	            0.136783	           -0.899729	           -0.371053	           -0.233013	            0.005581	           -0.255695	            0.110010	           -0.036741	           -0.032131	           -0.043883	           -0.739273	            0.701313	           -0.232311	            0.006130	           -0.833667	           -0.168955	           -0.047403	           -0.132048
            1.255500	            0.274393	           -0.719633	           -0.324766	           -0.233013	            0.005581	           -0.255695	           -0.023356	           -0.046107	            0.011614	           -0.041786	           -1.292555	            0.933983	           -0.232311	            0.006130	           -0.833667	           -0.112411	           -0.103782	           -0.169975
            1.256000	            0.274506	           -0.719830	           -0.278910	           -0.233013	            0.005581	           -0.255695	            0.106046	           -0.045999	           -0.007505	            0.144181	           -0.922745	            0.700576	           -0.232311	            0.006130	           -0.833667	           -0.131044	           -0.141795	           -0.132401
            1.256500	           -0.000521	            0.361318	           -0.181878	           -0.233013	            0.005581	           -0.255695	            0.045009	           -0.082947	           -0.056875	            0.146257	           -1.475859	            0.886318	           -0.232311	            0.006130	           -0.833667	           -0.093176	           -0.208298	           -0.000702
            1.257000	           -0.000746	           -0.899756	           -0.370712	           -0.233013	            0.005581	           -0.255695	            0.072364	           -0.073624	           -0.075656	            0.148169	           -2.027635	            0.696634	           -0.232311	            0.006130	           -0.833667	           -0.130771	           -0.217416	           -0.132671
            1.257500	            0.136912	           -0.359325	           -0.277023	           -0.233013	            0.005581	           -0.255695	            0.068064	           -0.018017	           -0.088360	           -0.042533	           -1.107737	            0.746927	           -0.232311	            0.006130	           -0.833667	           -0.243816	           -0.123363	           -0.113436
            1.258000	            0.182365	           -0.719061	           -0.462106	           -0.233013	            0.005581	           -0.255695	            0.000942	           -0.027098	           -0.123861	            0.051167	           -1.107399	            0.746887	           -0.232311	            0.006130	           -0.833667	           -0.206519	           -0.038422	           -0.037747
            1.258500	            0.228891	           -0.720232	           -0.187084	           -0.233013	            0.005581	           -0.255695	            0.008177	           -0.045875	           -0.046812	            0.144784	           -1.106391	            0.559135	           -0.232311	            0.006130	           -0.833667	           -0.187750	           -0.038220	           -0.075456
            1.259000	            0.136246	           -1.079012	           -0.601106	           -0.233013	            0.005581	           -0.255695	            0.101222	           -0.027669	            0.005533	            0.051770	           -1.291045	            0.605446	           -0.232311	            0.006130	           -0.833667	           -0.075012	           -0.047199	           -0.094388
